<svg xmlns="http://www.w3.org/2000/svg" width="19.51" height="19.51" viewBox="0 0 19.51 19.51">
  <g id="COCO_Duotone_Edit_-_3" data-name="COCO/Duotone/Edit - 3" transform="translate(-2.245 -2.245)">
    <path id="Vector" d="M.353,5.95a7.511,7.511,0,0,1,5.6-5.6,13.354,13.354,0,0,1,6.1,0,7.511,7.511,0,0,1,5.6,5.6,13.354,13.354,0,0,1,0,6.1,7.511,7.511,0,0,1-5.6,5.6,13.354,13.354,0,0,1-6.1,0,7.511,7.511,0,0,1-5.6-5.6A13.354,13.354,0,0,1,.353,5.95Z" transform="translate(3 3)" fill="rgba(76,134,19,0.15)" stroke="#4c8613" stroke-width="1.5"/>
    <path id="Vector-2" data-name="Vector" d="M2.463,3.113,5.074.5A1.714,1.714,0,1,1,7.5,2.926L4.887,5.537A8.858,8.858,0,0,1,.772,7.867l-.5.126a.215.215,0,0,1-.26-.26l.126-.5A8.858,8.858,0,0,1,2.463,3.113Z" transform="translate(8 8)" fill="none" stroke="#4c8613" stroke-width="1.5"/>
    <path id="Vector-3" data-name="Vector" d="M7,3.424A2.143,2.143,0,0,1,4.576,1" transform="translate(8 8)" fill="none" stroke="#4c8613" stroke-width="1.5"/>
  </g>
</svg>
