<svg xmlns="http://www.w3.org/2000/svg" width="19.51" height="19.51" viewBox="0 0 19.51 19.51">
  <g id="COCO_Duotone_Arrow_-_Top" data-name="COCO/Duotone/Arrow - Top" transform="translate(0.755 0.755)">
    <path id="Vector" d="M.353,5.95a7.511,7.511,0,0,1,5.6-5.6,13.354,13.354,0,0,1,6.1,0,7.511,7.511,0,0,1,5.6,5.6,13.354,13.354,0,0,1,0,6.1,7.511,7.511,0,0,1-5.6,5.6,13.354,13.354,0,0,1-6.1,0,7.511,7.511,0,0,1-5.6-5.6A13.354,13.354,0,0,1,.353,5.95Z" transform="translate(0)" fill="rgba(255,0,0,0.15)" stroke="red" stroke-width="1.5"/>
    <path id="Vector-2" data-name="Vector" d="M0,2.5H7m0,0L4.5,0M7,2.5l-.848.848L4.5,5" transform="translate(4.7 8.884) rotate(-34)" fill="rgba(255,0,0,0.15)" stroke="red" stroke-linecap="round" stroke-linejoin="round" stroke-width="1.5"/>
  </g>
</svg>
