<svg xmlns="http://www.w3.org/2000/svg" width="19.515" height="19.5" viewBox="0 0 19.515 19.5">
  <g id="COCO_Duotone_Turn_off" data-name="COCO/Duotone/Turn off" transform="translate(-2.243 -2.25)">
    <path id="Vector" d="M15.364,2.364a9.211,9.211,0,0,1,2.463,4.69,9.31,9.31,0,0,1-.512,5.292A9.127,9.127,0,0,1,14,16.456a8.87,8.87,0,0,1-10,0A9.127,9.127,0,0,1,.685,12.346,9.31,9.31,0,0,1,.173,7.054a9.211,9.211,0,0,1,2.463-4.69M9,0V4.727" transform="translate(3 3)" fill="rgba(76,134,19,0.15)" stroke="#4c8613" stroke-linecap="round" stroke-width="1.5"/>
  </g>
</svg>
