<svg xmlns="http://www.w3.org/2000/svg" width="17.61" height="22.213" viewBox="0 0 17.61 22.213">
  <g id="COCO_Duotone_User" data-name="COCO/Duotone/User" transform="translate(-4.25 -2.25)">
    <path id="Vector" d="M0,16.882A5.6,5.6,0,0,1,4.607,11.3l.239-.039a19.715,19.715,0,0,1,6.417,0l.239.039a5.6,5.6,0,0,1,4.607,5.58,2.139,2.139,0,0,1-2.1,2.173H2.1A2.139,2.139,0,0,1,0,16.882Z" transform="translate(5 4.658)" fill="rgba(76,134,19,0.15)" stroke="#4c8613" stroke-width="1.5"/>
    <path id="Vector-2" data-name="Vector" d="M12.314,4.531a4.617,4.617,0,0,1-4.7,4.531,4.617,4.617,0,0,1-4.7-4.531A4.617,4.617,0,0,1,7.615,0,4.617,4.617,0,0,1,12.314,4.531Z" transform="translate(5.44 3)" fill="rgba(76,134,19,0.15)" stroke="#4c8613" stroke-width="1.5"/>
  </g>
</svg>
